{"title":"Small Town Murder Songs 2010 DVDRIP UnKnOwN","uid":6544138,"size":734916356,"categoryP":"video","categoryS":"movies","magnet":"?xt=urn:btih:7e132952f5e76de2e9cc7b557ef8610e891c14b8&amp;dn=+Small+Town+Murder+Songs+2010+DVDRIP+UnKnOwN&amp;tr=udp%3A%2F%2Ftracker.openbittorrent.com%3A80&amp;tr=udp%3A%2F%2Fopen.demonii.com%3A1337&amp;tr=udp%3A%2F%2Ftracker.coppersurfer.tk%3A6969&amp;tr=udp%3A%2F%2Fexodus.desync.com%3A6969","seeders":0,"leechers":1,"uploader":"HeroMaster","files":-1,"time":1310798994,"description":":::::: UnKnOwN Presents ::::::\n\n\n::::: Small Town Murder Songs 2010 DVDRIP :::::\n\n\n::NOTES::\n\n\nSmall Town Murder Songs (2010)\nEncoded By .......:UnKnOwN\nRuntime: IMDb URL .........:http://www.imdb.com/title/tt1429392/\nLanguage .........:English\nFile Size ........:700\nRelease Date ......... 2010\nSource ......... DVD\nFile Type ......... Single AVI\nPS3 Compatible ....... Why dont You complain in comments and let me know(:\nGenre .........Crime | Thriller\n\n\n::Video\nID: 0\nFormat: MPEG-4 Visual\nFormat profile: Advanced Simple@L5\nFormat settings, BVOP: Yes\nFormat settings, QPel: No\nFormat settings, GMC: No warppoints\nFormat settings, Matrix: Custom\nCodec ID: XVID\nCodec ID/Hint: XviD\nDuration: 1h 15mn\nBit rate: 1 146 Kbps\nWidth: 640 pixels\nHeight: 274 pixels\nDisplay aspect ratio: 2.40:1\nFrame rate: 25.000 fps\nColor space: YUV\nChroma subsampling: 4:2:0\nBit depth: 8 bits\nScan type: Progressive\nBits/(Pixel*Frame): 0.253\nStream size: 44.7 MiB (4%)\nWriting library: XviD 1.2.1 (UTC 2008-12-04)\n\n\n::Audio::\n\n\nID: 1\nFormat: MPEG Audio\nCodec ID: 55\nCodec ID/Hint: MP3\nDuration: 1h 15mn\nBit rate: 133 Kbps\nChannel(s): 2 channels\nSampling rate: 44.1 KHz\nStream size: 107 MiB (9%)\nAlignment: Aligned on interleaves\n\n\n::SYSPNOSIS::\n\n\nA modern, gothic tale of crime and redemption about an aging police officer\nfrom a small Ontario Mennonite town who hides a violent past until a local\nmurder upsets the calm of his newly reformed life.\n\n\n::More Information::\n\n &lt;a href=&quot;\nhttp://www.postimg.com/image/42000/photo-41677.jpg&quot; rel=&quot;nofollow&quot; target=&quot;_NEW&quot;&gt;\nhttp://www.postimg.com/image/42000/photo-41677.jpg&lt;/a&gt;\n\n\n::Screens::\n\n &lt;a href=&quot;\nhttp://www.postimg.com/image/42000/photo-41675.jpg&quot; rel=&quot;nofollow&quot; target=&quot;_NEW&quot;&gt;\nhttp://www.postimg.com/image/42000/photo-41675.jpg&lt;/a&gt;\n &lt;a href=&quot;\nhttp://www.postimg.com/image/42000/photo-41678.jpg&quot; rel=&quot;nofollow&quot; target=&quot;_NEW&quot;&gt;\nhttp://www.postimg.com/image/42000/photo-41678.jpg&lt;/a&gt;\n &lt;a href=&quot;\nhttp://www.postimg.com/image/42000/photo-41679.jpg&quot; rel=&quot;nofollow&quot; target=&quot;_NEW&quot;&gt;\nhttp://www.postimg.com/image/42000/photo-41679.jpg&lt;/a&gt;\n\n\nENJOY!","torrent":{"xt":"urn:btih:7e132952f5e76de2e9cc7b557ef8610e891c14b8","amp;dn":"+Small+Town+Murder+Songs+2010+DVDRIP+UnKnOwN","amp;tr":["udp%3A%2F%2Ftracker.openbittorrent.com%3A80","udp%3A%2F%2Fopen.demonii.com%3A1337","udp%3A%2F%2Ftracker.coppersurfer.tk%3A6969","udp%3A%2F%2Fexodus.desync.com%3A6969"],"infoHash":"7e132952f5e76de2e9cc7b557ef8610e891c14b8","infoHashBuffer":{"type":"Buffer","data":[126,19,41,82,245,231,109,226,233,204,123,85,126,248,97,14,137,28,20,184]},"announce":[],"urlList":[]}}